<?xml version="1.0" standalone="no"?>
<!DOCTYPE svg PUBLIC "-//W3C//DTD SVG 20010904//EN"
 "http://www.w3.org/TR/2001/REC-SVG-20010904/DTD/svg10.dtd">
<svg version="1.0" xmlns="http://www.w3.org/2000/svg"
 width="463.000000pt" height="420.000000pt" viewBox="0 0 463.000000 420.000000"
 preserveAspectRatio="xMidYMid meet">
<metadata>
Created by potrace 1.16, written by Peter Selinger 2001-2019
</metadata>
<g transform="translate(0.000000,420.000000) scale(0.100000,-0.100000)"
fill="#000000" stroke="none">
<path d="M2025 4190 c-628 -82 -1178 -374 -1573 -835 -126 -147 -259 -349
-344 -523 -72 -146 -86 -199 -74 -267 8 -43 59 -103 103 -121 27 -12 399 -14
2178 -14 2116 0 2146 0 2184 20 70 35 107 106 98 187 -11 100 -218 467 -371
658 -85 105 -258 278 -371 368 -263 212 -577 371 -897 457 -225 60 -320 71
-603 75 -143 2 -291 0 -330 -5z m580 -206 c239 -29 486 -105 709 -216 149 -75
221 -119 363 -225 268 -199 490 -467 651 -783 l63 -125 -2072 -3 c-1140 -1
-2075 0 -2077 3 -9 9 109 232 178 338 228 351 540 625 915 807 394 191 820
259 1270 204z"/>
<path d="M83 2190 c-25 -10 -53 -58 -53 -90 0 -34 29 -80 56 -90 16 -6 859
-10 2254 -10 l2228 0 31 26 c27 22 31 32 31 74 0 42 -4 52 -31 74 l-31 26
-2231 -1 c-1270 0 -2241 -4 -2254 -9z"/>
<path d="M187 1756 c-83 -30 -147 -94 -175 -175 -18 -51 -14 -174 9 -312 119
-706 587 -1112 1414 -1228 249 -35 386 -41 902 -41 652 0 900 19 1192 91 647
160 997 555 1086 1227 28 213 15 283 -68 367 -94 94 129 85 -2236 85 -1730 -1
-2092 -3 -2124 -14z m4215 -217 c30 -30 31 -31 24 -107 -56 -667 -405 -1052
-1067 -1176 -265 -50 -768 -71 -1289 -56 -335 10 -450 19 -650 51 -542 86
-897 306 -1079 667 -89 177 -167 525 -135 601 7 16 20 34 31 40 12 7 633 10
2076 11 l2059 0 30 -31z"/>
</g>
</svg>
