<?xml version="1.0" standalone="no"?>
<!DOCTYPE svg PUBLIC "-//W3C//DTD SVG 20010904//EN"
 "http://www.w3.org/TR/2001/REC-SVG-20010904/DTD/svg10.dtd">
<svg version="1.0" xmlns="http://www.w3.org/2000/svg"
 width="1254.000000pt" height="651.000000pt" viewBox="0 0 1254.000000 651.000000"
 preserveAspectRatio="xMidYMid meet">
<metadata>
Created by potrace 1.16, written by Peter Selinger 2001-2019
</metadata>
<g transform="translate(0.000000,651.000000) scale(0.100000,-0.100000)"
fill="#000000" stroke="none">
<path d="M9525 6499 c-145 -6 -230 -14 -274 -26 l-64 -17 -35 -75 c-19 -42
-45 -125 -58 -186 -28 -130 -79 -286 -141 -434 -24 -58 -67 -181 -93 -273 -49
-167 -123 -371 -208 -568 -41 -98 -132 -378 -135 -420 -1 -10 -9 -21 -19 -23
-23 -6 -25 -57 -3 -57 8 0 15 -8 15 -17 0 -13 -3 -14 -12 -5 -22 22 -37 13
-44 -25 -19 -105 -62 -174 -100 -159 -24 9 -44 71 -44 135 0 54 -2 60 -22 64
l-23 4 23 2 c22 1 23 5 18 39 -12 88 -16 277 -7 397 6 85 6 157 0 211 -7 54
-7 112 0 170 6 58 6 140 0 234 -8 126 -7 158 9 245 10 56 15 111 11 125 -4 14
-7 55 -8 92 -1 61 -3 67 -23 71 l-23 4 23 2 c17 1 22 7 22 30 0 25 -5 30 -27
34 l-28 4 29 2 29 1 -6 143 c-6 157 -17 208 -52 243 l-24 24 -294 0 -293 0
-27 -28 -27 -28 0 -166 c0 -106 -4 -169 -10 -173 -8 -5 -7 -11 1 -21 8 -10 9
-17 0 -28 -9 -10 -8 -16 4 -26 14 -11 13 -14 -2 -26 -23 -16 -7 -47 26 -52 17
-3 20 -7 11 -17 -7 -8 -10 -51 -8 -111 2 -71 -1 -102 -10 -109 -10 -8 -9 -26
3 -94 9 -45 13 -96 10 -111 -3 -15 -14 -142 -24 -281 -17 -245 -17 -264 1
-554 16 -259 17 -336 8 -568 -6 -147 -15 -301 -19 -342 -8 -65 -5 -85 18 -172
l28 -98 -28 -107 -27 -108 18 -81 c10 -45 24 -85 30 -89 8 -5 8 -10 2 -14 -5
-3 -10 -68 -11 -148 -1 -79 -6 -209 -11 -289 -6 -96 -6 -158 1 -180 6 -23 6
-110 -1 -265 -8 -167 -8 -350 0 -660 10 -406 10 -434 -8 -524 -15 -76 -17
-114 -11 -190 13 -171 10 -319 -7 -382 -16 -54 -16 -63 -1 -111 9 -29 21 -72
27 -96 14 -53 45 -86 96 -100 23 -6 136 -11 272 -11 261 0 288 5 319 62 17 31
18 86 25 833 3 440 7 807 8 815 1 8 -2 59 -6 112 -6 82 -3 111 16 195 55 240
130 441 184 492 20 19 31 22 60 17 25 -5 36 -12 36 -24 0 -38 62 -269 90 -336
21 -48 34 -102 41 -166 17 -152 30 -206 59 -250 21 -32 183 -695 216 -885 41
-232 75 -395 108 -515 13 -47 26 -108 29 -137 10 -87 56 -156 131 -195 62 -32
201 -43 368 -31 148 11 203 26 245 65 44 41 25 172 -70 490 -29 101 -58 201
-63 223 -6 27 -17 44 -34 52 -24 12 -25 13 -2 13 26 0 30 25 7 50 -13 15 -13
22 0 66 20 66 19 81 -6 87 -12 3 -18 10 -15 15 3 5 -19 87 -50 183 -32 103
-100 372 -165 659 -60 267 -137 591 -170 720 -158 620 -248 1038 -256 1195 -4
82 -1 115 17 184 24 94 53 159 76 168 10 4 12 9 4 18 -7 9 -3 29 16 71 20 45
23 63 15 76 -7 11 -7 19 -1 23 40 25 187 411 270 708 46 165 99 311 136 374
19 33 22 47 15 67 -9 21 -7 25 12 28 16 2 23 11 25 33 2 17 11 38 19 47 9 10
17 35 18 56 1 20 7 47 13 59 7 12 10 28 7 35 -3 8 6 25 20 38 14 13 25 31 25
41 0 53 64 251 154 479 4 10 -8 24 -33 43 -44 30 -15 29 -356 16z"/>
<path d="M12145 6499 c-145 -6 -230 -14 -274 -26 l-64 -17 -35 -75 c-19 -42
-45 -125 -58 -186 -28 -130 -79 -286 -141 -434 -24 -58 -67 -181 -93 -273 -49
-167 -123 -371 -208 -568 -41 -98 -132 -378 -135 -420 -1 -10 -9 -21 -19 -23
-23 -6 -25 -57 -3 -57 8 0 15 -8 15 -17 0 -13 -3 -14 -12 -5 -22 22 -37 13
-44 -25 -19 -105 -62 -174 -100 -159 -24 9 -44 71 -44 135 0 54 -2 60 -22 64
l-23 4 23 2 c22 1 23 5 18 39 -12 88 -16 277 -7 397 6 85 6 157 0 211 -7 54
-7 112 0 170 6 58 6 140 0 234 -8 126 -7 158 9 245 10 56 15 111 11 125 -4 14
-7 55 -8 92 -1 61 -3 67 -23 71 l-23 4 23 2 c17 1 22 7 22 30 0 25 -5 30 -27
34 l-28 4 29 2 29 1 -6 143 c-6 157 -17 208 -52 243 l-24 24 -294 0 -293 0
-27 -28 -27 -28 0 -166 c0 -106 -4 -169 -10 -173 -8 -5 -7 -11 1 -21 8 -10 9
-17 0 -28 -9 -10 -8 -16 4 -26 14 -11 13 -14 -2 -26 -23 -16 -7 -47 26 -52 17
-3 20 -7 11 -17 -7 -8 -10 -51 -8 -111 2 -71 -1 -102 -10 -109 -10 -8 -9 -26
3 -94 9 -45 13 -96 10 -111 -3 -15 -14 -142 -24 -281 -17 -245 -17 -264 1
-554 16 -259 17 -336 8 -568 -6 -147 -15 -301 -19 -342 -8 -65 -5 -85 18 -172
l28 -98 -28 -107 -27 -108 18 -81 c10 -45 24 -85 30 -89 8 -5 8 -10 2 -14 -5
-3 -10 -68 -11 -148 -1 -79 -6 -209 -11 -289 -6 -96 -6 -158 1 -180 6 -23 6
-110 -1 -265 -8 -167 -8 -350 0 -660 10 -406 10 -434 -8 -524 -15 -76 -17
-114 -11 -190 13 -171 10 -319 -7 -382 -16 -54 -16 -63 -1 -111 9 -29 21 -72
27 -96 14 -53 45 -86 96 -100 23 -6 136 -11 272 -11 261 0 288 5 319 62 17 31
18 86 25 833 3 440 7 807 8 815 1 8 -2 59 -6 112 -6 82 -3 111 16 195 55 240
130 441 184 492 20 19 31 22 60 17 25 -5 36 -12 36 -24 0 -38 62 -269 90 -336
21 -48 34 -102 41 -166 17 -152 30 -206 59 -250 21 -32 183 -695 216 -885 41
-232 75 -395 108 -515 13 -47 26 -108 29 -137 10 -87 56 -156 131 -195 62 -32
201 -43 368 -31 148 11 203 26 245 65 44 41 25 172 -70 490 -29 101 -58 201
-63 223 -6 27 -17 44 -34 52 -24 12 -25 13 -2 13 26 0 30 25 7 50 -13 15 -13
22 0 66 20 66 19 81 -6 87 -12 3 -18 10 -15 15 3 5 -19 87 -50 183 -32 103
-100 372 -165 659 -60 267 -137 591 -170 720 -158 620 -248 1038 -256 1195 -4
82 -1 115 17 184 24 94 53 159 76 168 10 4 12 9 4 18 -7 9 -3 29 16 71 20 45
23 63 15 76 -7 11 -7 19 -1 23 40 25 187 411 270 708 46 165 99 311 136 374
19 33 22 47 15 67 -9 21 -7 25 12 28 16 2 23 11 25 33 2 17 11 38 19 47 9 10
17 35 18 56 1 20 7 47 13 59 7 12 10 28 7 35 -3 8 6 25 20 38 14 13 25 31 25
41 0 53 64 251 154 479 4 10 -8 24 -33 43 -44 30 -15 29 -356 16z"/>
<path d="M48 6445 c-15 -8 -32 -24 -38 -35 -6 -11 -10 -122 -10 -285 0 -299 3
-317 67 -356 31 -19 42 -21 87 -13 28 5 69 6 91 2 22 -4 68 -7 103 -7 49 -1
62 2 62 14 0 18 -11 20 95 -10 108 -30 105 -29 105 -7 1 14 2 14 13 -4 7 -11
29 -42 51 -67 l39 -47 2 -383 c2 -333 4 -386 18 -414 21 -39 21 -53 3 -53 -22
0 -25 -353 -23 -2561 2 -1917 3 -2037 20 -2062 39 -59 134 -82 352 -82 191 0
256 15 306 73 l31 35 -6 931 c-4 512 -6 951 -6 976 1 25 2 61 1 80 0 19 1 89
2 155 3 171 3 514 -1 695 -7 368 9 2597 19 2633 7 26 21 44 42 57 29 18 51 20
212 20 275 0 424 26 438 76 3 11 8 141 12 289 6 261 5 271 -15 303 -11 18 -31
37 -45 42 -15 6 -420 12 -1013 15 -885 5 -990 4 -1014 -10z"/>
<path d="M2651 6453 c-122 -3 -146 -6 -157 -21 -19 -25 -17 -30 14 -35 22 -3
21 -4 -9 -6 l-37 -1 -8 -207 c-10 -270 -8 -726 4 -828 8 -63 7 -85 -4 -102
-12 -19 -12 -33 3 -98 15 -70 15 -76 -1 -88 -15 -11 -15 -67 -5 -790 8 -572 8
-781 0 -791 -8 -10 -8 -33 2 -87 10 -58 11 -189 5 -614 -5 -297 -8 -558 -8
-580 0 -22 3 -345 6 -717 l5 -677 22 -4 c22 -4 22 -4 -1 -6 l-23 -1 3 -326 3
-326 33 -29 33 -30 296 3 295 3 22 26 23 26 0 1051 c0 957 -1 1051 -16 1055
-12 4 -12 5 3 6 18 1 19 9 12 210 -5 152 -4 216 4 231 19 35 86 60 163 60 64
0 68 -1 78 -26 5 -15 13 -24 16 -20 12 12 45 -87 49 -146 4 -59 26 -128 42
-128 4 0 14 -53 21 -117 7 -65 20 -152 28 -193 9 -41 16 -84 16 -95 0 -11 24
-134 53 -272 30 -139 54 -255 54 -258 0 -3 10 -5 23 -6 12 0 16 -3 10 -6 -7
-2 -13 -18 -13 -34 0 -24 4 -29 25 -29 26 0 33 -14 14 -26 -6 -3 -9 -19 -7
-35 3 -16 0 -29 -5 -29 -13 0 0 -96 24 -178 11 -37 20 -74 20 -82 0 -8 16 -93
36 -188 27 -135 32 -176 23 -187 -9 -11 -6 -26 13 -67 35 -74 65 -195 77 -310
12 -117 31 -168 76 -208 l35 -30 266 0 c219 0 275 3 318 16 l52 17 -4 66 c-7
99 -40 296 -74 434 -17 67 -32 135 -34 151 -11 79 -68 345 -80 376 -8 19 -17
54 -20 78 -5 31 -11 42 -21 38 -7 -3 -16 -1 -19 4 -3 4 0 10 6 12 7 2 -45 289
-147 811 -153 780 -158 809 -146 864 15 72 48 140 72 148 26 8 102 125 154
237 76 163 135 362 180 608 22 119 24 145 15 210 -8 52 -7 187 0 440 15 497 1
689 -69 956 -37 138 -93 278 -154 381 -77 127 -173 250 -234 298 -97 77 -344
185 -393 172 -10 -3 -19 -1 -19 4 0 11 -66 28 -142 36 -71 7 -677 11 -897 6z
m900 -702 c20 -6 52 -22 70 -36 19 -13 57 -38 84 -55 28 -16 47 -30 42 -30 -4
0 6 -26 22 -57 53 -106 113 -345 91 -367 -17 -17 -11 -36 13 -37 l22 -2 -22
-4 c-22 -4 -23 -9 -23 -87 0 -45 -5 -87 -11 -93 -7 -7 -1 -14 22 -22 23 -8 29
-14 22 -23 -10 -12 -27 -294 -25 -398 4 -212 3 -282 -7 -400 -14 -165 -38
-351 -52 -405 -13 -47 -64 -127 -111 -172 -66 -63 -193 -103 -333 -103 -87 0
-123 21 -160 95 l-30 60 1 1010 c1 995 2 1011 22 1050 24 48 50 73 88 85 37
12 227 5 275 -9z"/>
<path d="M5185 6453 c-67 -9 -132 -34 -154 -57 l-23 -25 11 -187 c6 -102 9
-189 7 -193 -3 -4 -7 -124 -10 -267 -3 -142 -11 -328 -16 -413 -7 -106 -7
-205 0 -319 6 -105 10 -792 10 -1855 0 -1676 5 -1931 34 -2019 8 -23 20 -91
26 -151 40 -394 272 -724 626 -892 135 -64 209 -77 407 -73 156 4 176 7 214
27 31 16 46 32 52 55 7 24 9 26 10 9 1 -13 5 -23 9 -23 26 0 177 70 180 84 2
10 -4 16 -15 17 -11 0 -13 3 -5 6 7 3 19 -1 27 -7 21 -17 196 141 260 235 131
194 225 478 266 805 8 60 13 304 16 667 l3 572 -32 4 -33 4 33 1 32 2 0 164
c0 104 -4 167 -10 171 -8 5 -7 11 1 21 8 10 9 87 3 296 -4 156 -7 335 -6 398
1 63 4 733 7 1488 6 1209 5 1376 -9 1396 -9 15 -37 30 -78 42 -53 16 -96 19
-278 19 -271 0 -286 -3 -311 -60 -34 -77 -41 -221 -30 -611 6 -197 11 -452 11
-566 0 -201 1 -208 20 -208 11 0 20 -7 20 -15 0 -18 -12 -19 -28 -3 -9 9 -12
3 -13 -27 0 -22 -4 -134 -9 -250 -6 -134 -5 -360 2 -624 8 -312 8 -419 -1
-433 -8 -14 -8 -23 1 -38 10 -16 10 -24 0 -40 -7 -12 -8 -20 -2 -20 6 0 6 -7
-2 -19 -9 -15 -9 -111 0 -423 7 -260 8 -417 2 -443 -6 -26 -6 -101 1 -215 12
-189 5 -968 -11 -1260 -12 -212 -36 -309 -102 -407 -53 -80 -143 -112 -252
-92 -167 31 -219 65 -271 174 -48 102 -56 160 -65 485 -8 269 -16 2282 -9
2385 1 22 -1 191 -5 375 -4 189 -4 389 2 460 5 77 5 138 -1 161 -5 23 -5 108
1 226 6 120 6 232 -1 308 -6 80 -6 207 2 378 11 268 0 688 -20 735 -5 13 -30
33 -57 45 -42 20 -65 22 -227 23 -99 1 -193 0 -210 -3z"/>
</g>
</svg>
