<?xml version="1.0" standalone="no"?>
<!DOCTYPE svg PUBLIC "-//W3C//DTD SVG 20010904//EN"
 "http://www.w3.org/TR/2001/REC-SVG-20010904/DTD/svg10.dtd">
<svg version="1.0" xmlns="http://www.w3.org/2000/svg"
 width="438.000000pt" height="268.000000pt" viewBox="0 0 438.000000 268.000000"
 preserveAspectRatio="xMidYMid meet">
<metadata>
Created by potrace 1.16, written by Peter Selinger 2001-2019
</metadata>
<g transform="translate(0.000000,268.000000) scale(0.100000,-0.100000)"
fill="#000000" stroke="none">
<path d="M215 2671 c-71 -24 -165 -103 -180 -152 -4 -13 -13 -27 -18 -31 -8
-5 -12 -306 -15 -985 -5 -1099 -11 -1002 72 -1087 24 -25 55 -48 70 -52 14 -3
26 -10 26 -15 0 -5 11 -9 25 -9 14 0 25 -4 25 -10 0 -6 106 -10 298 -10 l298
0 2 -25 c3 -40 50 -128 91 -171 97 -101 151 -124 290 -124 83 0 110 4 149 22
26 12 49 25 52 28 3 4 19 14 35 24 17 10 41 33 55 52 14 20 31 41 38 49 6 7
12 18 12 24 0 6 4 11 9 11 8 0 26 71 24 97 -1 10 106 13 502 13 l503 0 -6 -22
c-3 -14 -2 -19 6 -14 8 5 12 -1 12 -16 0 -13 7 -32 15 -42 8 -11 15 -26 15
-33 0 -19 94 -123 111 -123 4 0 14 -6 21 -12 7 -7 34 -23 61 -35 68 -33 221
-33 298 -1 61 25 65 28 117 80 70 69 112 142 112 194 l0 24 350 0 c227 0 350
4 350 10 0 6 11 10 25 10 14 0 25 4 25 9 0 5 12 12 26 15 14 4 37 18 50 31 14
14 30 25 36 25 6 0 8 3 5 6 -4 4 1 14 11 23 27 25 52 80 52 112 0 16 4 29 9
29 5 0 12 38 16 85 4 47 11 87 16 91 5 3 9 25 9 50 0 24 4 44 8 44 5 0 13 37
19 83 6 45 16 105 22 132 5 28 10 95 10 150 1 81 -3 107 -18 136 -26 49 -70
90 -119 114 -23 11 -42 23 -42 26 0 4 -20 10 -45 13 -24 4 -47 11 -50 17 -4 5
-15 9 -26 9 -10 0 -19 4 -19 9 0 5 -20 12 -45 15 -24 4 -47 11 -50 17 -4 5
-17 9 -31 9 -14 0 -23 4 -20 9 3 5 -17 11 -44 15 -28 4 -50 11 -50 16 0 6 -11
10 -25 10 -14 0 -25 4 -25 9 0 5 -20 12 -45 15 -24 4 -47 11 -50 17 -4 5 -17
9 -31 9 -14 0 -22 4 -19 10 3 5 1 10 -4 10 -6 0 -11 9 -11 19 0 11 -4 23 -10
26 -5 3 -10 17 -10 31 0 13 -4 24 -9 24 -5 0 -12 23 -16 50 -4 28 -11 50 -16
50 -5 0 -9 11 -9 25 0 14 -4 25 -9 25 -5 0 -12 23 -16 50 -4 28 -11 50 -16 50
-5 0 -9 11 -9 24 0 14 -4 27 -9 31 -6 3 -13 26 -17 50 -3 25 -10 48 -15 51 -5
3 -9 16 -9 30 0 13 -4 24 -9 24 -5 0 -12 23 -16 50 -4 28 -11 50 -16 50 -5 0
-9 11 -9 25 0 14 -4 25 -9 25 -5 0 -12 20 -15 45 -4 25 -11 45 -17 45 -5 0 -9
7 -9 15 0 8 -4 15 -10 15 -5 0 -10 5 -10 10 0 15 -52 70 -66 70 -7 0 -14 4
-16 8 -1 4 -22 18 -46 30 l-43 22 -1457 -1 c-801 -1 -1466 -4 -1477 -8z m2943
-187 c17 -17 32 -39 32 -48 0 -9 4 -16 9 -16 5 0 12 -22 16 -50 4 -27 11 -50
16 -50 5 0 9 -11 9 -25 0 -14 4 -25 9 -25 5 0 12 -22 16 -50 4 -27 11 -50 16
-50 5 0 9 -11 9 -25 0 -14 4 -25 9 -25 5 0 12 -22 16 -50 4 -27 11 -50 16 -50
5 0 9 -11 9 -25 0 -14 4 -25 9 -25 5 0 12 -22 16 -50 4 -27 11 -50 16 -50 5 0
9 -11 9 -24 0 -14 4 -27 9 -31 6 -3 13 -26 17 -50 3 -25 10 -45 15 -45 5 0 9
-9 9 -20 0 -11 4 -28 9 -38 4 -9 16 -33 25 -52 16 -32 72 -70 104 -70 7 0 12
-4 12 -9 0 -5 20 -12 45 -15 24 -4 47 -11 50 -17 4 -5 17 -9 31 -9 14 0 23 -4
20 -9 -3 -5 17 -11 44 -15 28 -4 50 -11 50 -16 0 -6 11 -10 25 -10 14 0 25 -4
25 -9 0 -5 20 -12 45 -15 24 -4 47 -11 50 -17 4 -5 15 -9 26 -9 10 0 19 -4 19
-9 0 -5 23 -12 50 -16 28 -4 50 -11 50 -16 0 -5 9 -9 20 -9 11 0 20 -4 20 -10
0 -5 7 -10 15 -10 31 0 48 -59 41 -143 -4 -44 -11 -88 -16 -98 -6 -10 -10 -34
-10 -53 0 -20 -4 -36 -9 -36 -4 0 -11 -37 -15 -82 -4 -46 -11 -87 -16 -92 -6
-6 -10 -29 -10 -53 0 -24 -4 -43 -10 -43 -5 0 -10 -17 -10 -37 0 -71 -12 -112
-41 -143 -16 -16 -38 -30 -49 -30 -11 0 -20 -4 -20 -10 0 -6 -119 -10 -338
-10 l-337 0 -27 57 c-25 56 -57 95 -110 138 -34 27 -86 55 -104 55 -9 0 -13 4
-10 9 3 4 -24 11 -60 14 -75 7 -184 -1 -184 -14 0 -5 -6 -9 -14 -9 -29 0 -109
-52 -145 -93 -50 -58 -61 -74 -77 -114 l-18 -43 -513 0 -513 0 0 25 c0 22 -24
66 -60 108 -49 58 -132 117 -165 117 -7 0 -15 5 -17 12 -5 14 -236 16 -246 2
-9 -11 -70 -44 -83 -44 -14 0 -117 -109 -124 -131 -4 -11 -10 -19 -15 -19 -4
0 -11 -16 -14 -35 l-7 -35 -289 0 c-187 0 -290 4 -290 10 0 6 -9 10 -20 10
-10 0 -31 12 -46 27 l-27 27 6 936 c5 606 11 936 17 938 6 2 10 8 10 14 0 13
24 36 57 53 24 13 222 15 1453 13 l1425 -3 33 -31z"/>
</g>
</svg>
